HIERARCHY
ROOT Hips
{
    OFFSET 0.000000 0.000000 0.000000
    CHANNELS 6 Xposition Yposition Zposition Zrotation Xrotation Yrotation
    JOINT Spine
    {
        OFFSET -0.000000 7.750029 0.000000
        CHANNELS 3 Zrotation Xrotation Yrotation
        JOINT Spine1
        {
            OFFSET -0.000000 19.767460 0.000000
            CHANNELS 3 Zrotation Xrotation Yrotation
            JOINT Neck
            {
                OFFSET -0.000000 19.686279 1.789662
                CHANNELS 3 Zrotation Xrotation Yrotation
                JOINT Head
                {
                    OFFSET -0.000000 13.231757 -1.890251
                    CHANNELS 3 Zrotation Xrotation Yrotation
                    End Site
                    {
                        OFFSET -0.000000 23.628138 0.000000
                    }
                }
            }
            JOINT LeftShoulder
            {
                OFFSET 3.736819 16.910755 -0.280982
                CHANNELS 3 Zrotation Xrotation Yrotation
                JOINT LeftArm
                {
                    OFFSET 13.626117 0.000000 0.000000
                    CHANNELS 3 Zrotation Xrotation Yrotation
                    JOINT LeftForeArm
                    {
                        OFFSET 31.364786 0.000000 0.000000
                        CHANNELS 3 Zrotation Xrotation Yrotation
                        JOINT LeftHand
                        {
                            OFFSET 23.389509 0.000000 0.000000
                            CHANNELS 3 Zrotation Xrotation Yrotation
                            End Site
                            {
                                OFFSET 14.176883 0.000000 0.000000
                            }
                        }
                    }
                }
            }
            JOINT RightShoulder
            {
                OFFSET -3.821718 16.910755 -0.280982
                CHANNELS 3 Zrotation Xrotation Yrotation
                JOINT RightArm
                {
                    OFFSET -13.626117 0.000000 0.000000
                    CHANNELS 3 Zrotation Xrotation Yrotation
                    JOINT RightForeArm
                    {
                        OFFSET -31.364786 0.000000 0.000000
                        CHANNELS 3 Zrotation Xrotation Yrotation
                        JOINT RightHand
                        {
                            OFFSET -23.389509 0.000000 0.000000
                            CHANNELS 3 Zrotation Xrotation Yrotation
                            End Site
                            {
                                OFFSET -14.176883 0.000000 0.000000
                            }
                        }
                    }
                }
            }
        }
    }
    JOINT LeftUpLeg
    {
        OFFSET 9.451255 0.000000 0.000000
        CHANNELS 3 Zrotation Xrotation Yrotation
        JOINT LeftLeg
        {
            OFFSET -0.000000 -41.898624 0.000000
            CHANNELS 3 Zrotation Xrotation Yrotation
            JOINT LeftFoot
            {
                OFFSET -0.000000 -38.481331 0.000000
                CHANNELS 3 Zrotation Xrotation Yrotation
                JOINT LeftToeBase
                {
                    OFFSET -0.000000 -6.143315 14.176883
                    CHANNELS 3 Zrotation Xrotation Yrotation
                    End Site
                    {
                        OFFSET -0.000000 0.000000 3.780502
                    }
                }
            }
        }
    }
    JOINT RightUpLeg
    {
        OFFSET -9.451255 0.000000 0.000000
        CHANNELS 3 Zrotation Xrotation Yrotation
        JOINT RightLeg
        {
            OFFSET -0.000000 -41.898624 0.000000
            CHANNELS 3 Zrotation Xrotation Yrotation
            JOINT RightFoot
            {
                OFFSET -0.000000 -38.481331 0.000000
                CHANNELS 3 Zrotation Xrotation Yrotation
                JOINT RightToeBase
                {
                    OFFSET -0.000000 -6.143315 14.176883
                    CHANNELS 3 Zrotation Xrotation Yrotation
                    End Site
                    {
                        OFFSET -0.000000 0.000000 3.780502
                    }
                }
            }
        }
    }
}
MOTION
Frames:    6
Frame Time:    0.010000
3.266398    88.034157    37.761982    -1.562388    1.986979    168.449158    -0.809999    -2.908570    -4.899088    0.476355    8.302750    -4.913104    -19.969027    59.470119    25.407410    12.057142    -29.324959    21.297831    14.980074    -11.345702    -13.558104    -47.802639    38.385857    -49.081066    -16.703915    -40.864079    -104.088387    59.216045    -40.618736    37.144691    -20.534561    -9.109427    7.718328    36.302303    28.601109    53.233696    12.975044    -29.745092    111.531647    -16.005608    -39.695686    -48.069290    11.496342    -19.095228    10.092609    -18.869751    62.242577    9.645015    -1.834602    -2.530448    -0.894691    0.000000    0.000000    0.000000    -1.655648    -13.150812    13.524402    5.842207    36.509396    6.853267    -2.976018    -18.740993    -22.344826    0.000000    0.000000    0.000000    
3.232033    88.304726    36.742775    -1.643380    1.982875    168.347321    -0.831432    -2.802793    -4.787126    0.376968    8.264440    -4.794025    -18.494394    59.202797    24.337086    10.876176    -28.489710    20.452518    15.045193    -11.216841    -13.482368    -47.554993    38.522758    -49.216461    -16.440857    -41.144978    -104.034271    59.075058    -40.566940    37.338875    -20.406143    -9.048485    7.689934    36.050644    28.860521    53.353703    12.949794    -29.904242    111.621521    -16.431265    -39.621716    -48.526272    11.580883    -19.668222    10.179676    -18.227026    60.188637    10.181263    -1.652130    -2.929516    -1.250570    0.000000    0.000000    0.000000    -1.997106    -11.918413    13.354496    5.612190    35.330532    6.713049    -2.800270    -18.626554    -21.941759    0.000000    0.000000    0.000000    
3.234547    88.592995    35.769554    -1.705151    1.791445    168.348831    -0.891501    -2.803245    -4.748349    0.343822    8.121145    -4.750938    -18.850111    58.597256    24.540228    11.485971    -27.709766    20.802715    15.184211    -11.163397    -13.462234    -46.673504    39.446018    -49.447975    -16.326797    -41.923801    -104.445801    59.183231    -41.310696    37.359451    -20.304302    -9.098815    7.730474    36.061760    29.098932    53.323395    12.983244    -30.005630    111.570869    -16.354992    -39.764595    -48.520798    11.708409    -20.432981    10.145345    -17.392855    58.176632    7.155026    -2.103412    -3.570336    1.529108    0.000000    0.000000    0.000000    -2.242301    -10.830594    12.857831    5.137128    34.125908    7.541659    -3.641173    -17.680008    -22.004791    0.000000    0.000000    0.000000    
3.193611    88.852562    34.754425    -1.807097    1.699442    168.336761    -0.928445    -2.778125    -4.695296    0.253228    8.051472    -4.690607    -18.510517    59.642258    24.516155    10.288384    -29.237955    20.357613    15.209478    -11.372728    -13.489972    -46.938133    39.412228    -48.893845    -16.237881    -41.552296    -104.333389    59.619709    -40.614914    37.442421    -20.239628    -9.070909    7.782294    36.019203    29.259357    53.260201    12.726783    -30.092264    111.393738    -15.829651    -39.808495    -47.496895    11.695805    -21.014688    10.268524    -16.873959    55.918667    7.901613    -1.495399    -3.911252    1.458932    0.000000    0.000000    0.000000    -2.616507    -9.558461    12.631518    4.946971    32.649307    6.711479    -4.104981    -17.413082    -21.375908    0.000000    0.000000    0.000000    
3.150332    89.108208    33.734810    -1.891415    1.586288    168.269943    -0.951478    -2.733292    -4.578230    0.223492    7.896964    -4.570958    -18.282064    59.832176    24.188541    9.991039    -29.383953    19.981131    15.238635    -11.417186    -13.614265    -47.170341    39.251842    -48.505573    -15.350806    -41.913273    -103.566689    57.834145    -40.606812    37.188114    -20.232351    -8.932516    7.714033    35.906960    29.336369    53.343113    13.898233    -29.495609    112.185326    -19.658957    -39.196808    -49.788971    11.662740    -21.478125    10.285907    -15.667870    53.050579    9.563817    -5.064113    -4.419168    1.001043    0.000000    0.000000    0.000000    -2.966020    -8.335562    12.372680    4.693526    31.275230    7.129309    -3.502580    -17.227610    -21.294922    0.000000    0.000000    0.000000    
3.081125    89.347366    32.738464    -1.985426    1.363681    168.220490    -0.876151    -2.756649    -4.515155    0.022752    7.726141    -4.495607    -18.151976    59.378098    24.045071    10.061487    -28.678825    19.979824    15.336773    -11.401405    -13.567081    -46.729702    39.526878    -48.817665    -15.329443    -42.527931    -103.572823    55.913731    -42.014362    36.850174    -20.211597    -9.051028    7.691698    35.970291    29.527597    53.336628    12.989769    -30.140350    111.438080    -16.647171    -39.807434    -48.101868    11.552537    -21.968901    10.147016    -13.966960    50.272198    0.423664    -2.813700    -3.929916    7.915522    0.000000    0.000000    0.000000    -3.318032    -7.295366    12.102341    4.440450    30.105827    8.586722    -3.854154    -16.969671    -22.303324    0.000000    0.000000    0.000000    
